<svg xmlns="http://www.w3.org/2000/svg" xmlns:xlink="http://www.w3.org/1999/xlink" contentStyleType="text/css" height="394px" preserveAspectRatio="none" style="width:1659px;height:394px;background:#FEFEFE;" version="1.1" viewBox="0 0 1659 394" width="1659px" zoomAndPan="magnify"><title>StudyHub-IL Use Case Diagram</title><defs/><g><rect fill="#FEFEFE" height="394" style="stroke:none;stroke-width:1.0;" width="1659" x="0" y="0"/><text fill="#000000" font-family="sans-serif" font-size="14" font-weight="bold" lengthAdjust="spacing" textLength="245.7314" x="700.0693" y="22.9951">StudyHub-IL Use Case Diagram</text><!--cluster StudyHub - IL--><g id="cluster_StudyHub - IL"><rect fill="none" height="223" rx="2.5" ry="2.5" style="stroke:#181818;stroke-width:1.0;" width="1296" x="63.49" y="165.7969"/><text fill="#000000" font-family="sans-serif" font-size="14" font-weight="bold" lengthAdjust="spacing" textLength="107.2832" x="657.8484" y="180.792">StudyHub - IL</text></g><g id="elem_Auth"><ellipse cx="1032.3519" cy="354.9693" fill="#E3F2FD" rx="78.8619" ry="18.1724" style="stroke:#1976D2;stroke-width:0.5;"/><text fill="#000000" font-family="sans-serif" font-size="14" lengthAdjust="spacing" textLength="115.7461" x="972.3729" y="358.4762">&#1492;&#1512;&#1513;&#1502;&#1492; / &#1492;&#1514;&#1495;&#1489;&#1512;&#1493;&#1514;</text></g><g id="elem_Browse"><ellipse cx="158.3231" cy="222.5635" fill="#E3F2FD" rx="79.3331" ry="18.2666" style="stroke:#1976D2;stroke-width:0.5;"/><text fill="#000000" font-family="sans-serif" font-size="14" lengthAdjust="spacing" textLength="116.9014" x="97.9509" y="226.0181">&#1495;&#1497;&#1508;&#1493;&#1513;/&#1506;&#1497;&#1493;&#1503; &#1489;&#1505;&#1497;&#1499;&#1493;&#1502;&#1497;&#1501;</text></g><g id="elem_Upload"><ellipse cx="640.58" cy="223.0149" fill="#E3F2FD" rx="86.59" ry="19.718" style="stroke:#1976D2;stroke-width:0.5;"/><text fill="#000000" font-family="sans-serif" font-size="14" lengthAdjust="spacing" textLength="133.9775" x="573.5912" y="225.8616">&#1492;&#1506;&#1500;&#1488;&#1514;/&#1513;&#1497;&#1514;&#1493;&#1507; &#1505;&#1497;&#1499;&#1493;&#1502;&#1497;&#1501;</text></g><g id="elem_Discussion"><ellipse cx="1032.5196" cy="222.6028" fill="#E3F2FD" rx="82.0296" ry="18.8059" style="stroke:#1976D2;stroke-width:0.5;"/><text fill="#000000" font-family="sans-serif" font-size="14" lengthAdjust="spacing" textLength="123.3887" x="969.8977" y="225.7577">&#1497;&#1510;&#1497;&#1512;&#1514;/&#1492;&#1510;&#1496;&#1512;&#1508;&#1493;&#1514; &#1500;&#1491;&#1497;&#1493;&#1503;</text></g><g id="elem_FindPartner"><ellipse cx="1246.4721" cy="222.5933" fill="#E3F2FD" rx="96.9821" ry="21.7964" style="stroke:#1976D2;stroke-width:0.5;"/><text fill="#000000" font-family="sans-serif" font-size="14" lengthAdjust="spacing" textLength="157.3838" x="1167.7802" y="225.44">&#1488;&#1497;&#1514;&#1493;&#1512;/&#1492;&#1514;&#1488;&#1502;&#1514; &#1513;&#1493;&#1514;&#1507; &#1500;&#1497;&#1502;&#1493;&#1491;</text></g><g id="elem_Schedule"><ellipse cx="838.4289" cy="222.9846" fill="#E3F2FD" rx="76.4389" ry="17.6878" style="stroke:#1976D2;stroke-width:0.5;"/><text fill="#000000" font-family="sans-serif" font-size="14" lengthAdjust="spacing" textLength="109.6895" x="780.5841" y="226.7322">&#1514;&#1497;&#1488;&#1493;&#1501; &#1502;&#1508;&#1490;&#1513; &#1500;&#1497;&#1502;&#1493;&#1491;</text></g><g id="elem_Report"><ellipse cx="427.3863" cy="222.9761" fill="#E3F2FD" rx="91.3963" ry="20.6793" style="stroke:#1976D2;stroke-width:0.5;"/><text fill="#000000" font-family="sans-serif" font-size="14" lengthAdjust="spacing" textLength="144.8945" x="354.939" y="225.8228">&#1491;&#1497;&#1493;&#1493;&#1495; &#1506;&#1500; &#1514;&#1493;&#1499;&#1503; &#1489;&#1500;&#1514;&#1497; &#1492;&#1493;&#1500;&#1501;</text></g><!--entity Guest--><g id="elem_Guest"><ellipse cx="56.6008" cy="51.2969" fill="#E8F5E9" rx="8" ry="8" style="stroke:#181818;stroke-width:0.5;"/><path d="M56.6008,59.2969 L56.6008,86.2969 M43.6008,67.2969 L69.6008,67.2969 M56.6008,86.2969 L43.6008,101.2969 M56.6008,86.2969 L69.6008,101.2969 " fill="none" style="stroke:#181818;stroke-width:0.5;"/><text fill="#000000" font-family="sans-serif" font-size="14" lengthAdjust="spacing" textLength="30.2217" x="41.49" y="115.792">&#1488;&#1493;&#1512;&#1495;</text></g><!--entity Student--><g id="elem_Student"><ellipse cx="1054.3298" cy="51.2969" fill="#E8F5E9" rx="8" ry="8" style="stroke:#181818;stroke-width:0.5;"/><path d="M1054.3298,59.2969 L1054.3298,86.2969 M1041.3298,67.2969 L1067.3298,67.2969 M1054.3298,86.2969 L1041.3298,101.2969 M1054.3298,86.2969 L1067.3298,101.2969 " fill="none" style="stroke:#181818;stroke-width:0.5;"/><text fill="#000000" font-family="sans-serif" font-size="14" lengthAdjust="spacing" textLength="79.6797" x="1014.49" y="115.792">&#1505;&#1496;&#1493;&#1491;&#1504;&#1496; &#1512;&#1513;&#1493;&#1501;</text></g><!--entity Moderator--><g id="elem_Moderator"><ellipse cx="542.5989" cy="51.2969" fill="#E8F5E9" rx="8" ry="8" style="stroke:#181818;stroke-width:0.5;"/><path d="M542.5989,59.2969 L542.5989,86.2969 M529.5989,67.2969 L555.5989,67.2969 M542.5989,86.2969 L529.5989,101.2969 M542.5989,86.2969 L555.5989,101.2969 " fill="none" style="stroke:#181818;stroke-width:0.5;"/><text fill="#000000" font-family="sans-serif" font-size="14" lengthAdjust="spacing" textLength="32.2178" x="526.49" y="115.792">&#1502;&#1504;&#1492;&#1500;</text></g><!--entity Admin--><g id="elem_Admin"><ellipse cx="788.7136" cy="51.2969" fill="#E8F5E9" rx="8" ry="8" style="stroke:#181818;stroke-width:0.5;"/><path d="M788.7136,59.2969 L788.7136,86.2969 M775.7136,67.2969 L801.7136,67.2969 M788.7136,86.2969 L775.7136,101.2969 M788.7136,86.2969 L801.7136,101.2969 " fill="none" style="stroke:#181818;stroke-width:0.5;"/><text fill="#000000" font-family="sans-serif" font-size="14" lengthAdjust="spacing" textLength="79.4473" x="748.99" y="115.792">&#1502;&#1504;&#1492;&#1500; &#1502;&#1506;&#1512;&#1499;&#1514;</text></g><g id="elem_GMN41"><path d="M1378.49,195.2969 L1378.49,250.6953 L1508.8093,250.6953 L1508.8093,205.2969 L1498.8093,195.2969 L1378.49,195.2969 " fill="#FEFFDD" style="stroke:#181818;stroke-width:0.5;"/><path d="M1498.8093,195.2969 L1498.8093,205.2969 L1508.8093,205.2969 L1498.8093,195.2969 " fill="#FEFFDD" style="stroke:#181818;stroke-width:1.0;"/><text fill="#000000" font-family="sans-serif" font-size="13" lengthAdjust="spacing" textLength="100.6865" x="1384.49" y="212.3638">&#1504;&#1497;&#1514;&#1503; &#1500;&#1491;&#1493;&#1493;&#1495; &#1506;&#1500; &#1514;&#1493;&#1499;&#1503;</text><text fill="#000000" font-family="sans-serif" font-size="13" lengthAdjust="spacing" textLength="109.3193" x="1384.49" y="227.4966">&#1489;&#1500;&#1514;&#1497; &#1492;&#1493;&#1500;&#1501; &#1489;&#1494;&#1502;&#1503; &#1506;&#1497;&#1493;&#1503;</text><text fill="#000000" font-family="sans-serif" font-size="13" lengthAdjust="spacing" textLength="49.6387" x="1384.49" y="242.6294">&#1489;&#1505;&#1497;&#1499;&#1493;&#1502;&#1497;&#1501;</text></g><g id="elem_GMN44"><path d="M1375.99,327.2969 L1375.99,350.7969 L1111.52,354.7969 L1375.99,358.7969 L1375.99,382.6953 A0,0 0 0 0 1375.99,382.6953 L1519.3411,382.6953 A0,0 0 0 0 1519.3411,382.6953 L1519.3411,337.2969 L1509.3411,327.2969 L1375.99,327.2969 A0,0 0 0 0 1375.99,327.2969 " fill="#FEFFDD" style="stroke:#181818;stroke-width:0.5;"/><path d="M1509.3411,327.2969 L1509.3411,337.2969 L1519.3411,337.2969 L1509.3411,327.2969 " fill="#FEFFDD" style="stroke:#181818;stroke-width:0.5;"/><text fill="#000000" font-family="sans-serif" font-size="13" lengthAdjust="spacing" textLength="122.3511" x="1381.99" y="344.3638">&#1488;&#1497;&#1502;&#1493;&#1514; &#1504;&#1491;&#1512;&#1513; &#1500;&#1492;&#1506;&#1500;&#1488;&#1492;,</text><text fill="#000000" font-family="sans-serif" font-size="13" lengthAdjust="spacing" textLength="118.041" x="1381.99" y="359.4966">&#1491;&#1497;&#1493;&#1504;&#1497;&#1501;, &#1514;&#1497;&#1488;&#1493;&#1501; &#1502;&#1508;&#1490;&#1513;&#1497;&#1501;</text><text fill="#000000" font-family="sans-serif" font-size="13" lengthAdjust="spacing" textLength="79.644" x="1381.99" y="374.6294">&#1493;&#1488;&#1497;&#1514;&#1493;&#1512; &#1513;&#1493;&#1514;&#1508;&#1497;&#1501;</text></g><!--link Upload to Auth--><g id="link_Upload_Auth"><path d="M684.58,239.7469 C726.96,254.9469 792.9,278.2869 850.49,297.2969 C896.67,312.5469 944.0879,327.1667 980.9779,338.3467 " fill="none" id="Upload-to-Auth" style="stroke:#181818;stroke-width:1.0;stroke-dasharray:7.0,7.0;"/><polygon fill="#181818" points="986.72,340.0869,979.267,333.6485,981.9349,338.6367,976.9467,341.3046,986.72,340.0869" style="stroke:#181818;stroke-width:1.0;"/><text fill="#000000" font-family="sans-serif" font-size="13" lengthAdjust="spacing" textLength="63.0068" x="851.49" y="293.3638">&#171;include&#187;</text></g><!--link Discussion to Auth--><g id="link_Discussion_Auth"><path d="M1032.49,241.8769 C1032.49,266.9869 1032.49,306.1169 1032.49,330.6969 " fill="none" id="Discussion-to-Auth" style="stroke:#181818;stroke-width:1.0;stroke-dasharray:7.0,7.0;"/><polygon fill="#181818" points="1032.49,336.6969,1036.49,327.6969,1032.49,331.6969,1028.49,327.6969,1032.49,336.6969" style="stroke:#181818;stroke-width:1.0;"/><text fill="#000000" font-family="sans-serif" font-size="13" lengthAdjust="spacing" textLength="63.0068" x="1033.49" y="293.3638">&#171;include&#187;</text></g><!--link Schedule to Auth--><g id="link_Schedule_Auth"><path d="M861.89,239.4769 C898.98,264.3269 965.8955,309.177 1003.4155,334.317 " fill="none" id="Schedule-to-Auth" style="stroke:#181818;stroke-width:1.0;stroke-dasharray:7.0,7.0;"/><polygon fill="#181818" points="1008.4,337.6569,1003.1498,329.3241,1004.2462,334.8737,998.6967,335.9701,1008.4,337.6569" style="stroke:#181818;stroke-width:1.0;"/><text fill="#000000" font-family="sans-serif" font-size="13" lengthAdjust="spacing" textLength="63.0068" x="947.49" y="293.3638">&#171;include&#187;</text></g><!--link FindPartner to Auth--><g id="link_FindPartner_Auth"><path d="M1213.99,243.5369 C1171.54,269.3269 1103.178,310.8518 1063.998,334.6518 " fill="none" id="FindPartner-to-Auth" style="stroke:#181818;stroke-width:1.0;stroke-dasharray:7.0,7.0;"/><polygon fill="#181818" points="1058.87,337.7669,1068.6387,336.513,1063.1433,335.171,1064.4853,329.6757,1058.87,337.7669" style="stroke:#181818;stroke-width:1.0;"/><text fill="#000000" font-family="sans-serif" font-size="13" lengthAdjust="spacing" textLength="63.0068" x="1152.49" y="293.3638">&#171;include&#187;</text></g><!--link Report to Browse--><g id="link_Report_Browse"><path d="M335.78,222.7969 C304.05,222.7969 274.78,222.7969 244.11,222.7969 " fill="none" id="Report-to-Browse" style="stroke:#181818;stroke-width:1.0;stroke-dasharray:7.0,7.0;"/><polygon fill="#181818" points="238.11,222.7969,247.11,226.7969,243.11,222.7969,247.11,218.7969,238.11,222.7969" style="stroke:#181818;stroke-width:1.0;"/><text fill="#000000" font-family="sans-serif" font-size="13" lengthAdjust="spacing" textLength="61.1851" x="256.49" y="215.8638">&#171;extend&#187;</text></g><!--link Guest to Browse--><g id="link_Guest_Browse"><path d="M71.54,102.4569 C91.6,129.9869 123.2265,173.3977 142.1065,199.3077 " fill="none" id="Guest-to-Browse" style="stroke:#181818;stroke-width:1.0;"/><polygon fill="#181818" points="145.64,204.1569,143.5726,194.5275,142.6954,200.1159,137.107,199.2388,145.64,204.1569" style="stroke:#181818;stroke-width:1.0;"/></g><!--link Guest to Auth--><g id="link_Guest_Auth"><path d="M41.38,111.2869 C25.44,146.9269 6,207.4369 32.49,250.2969 C57.05,290.0269 81.39,285.1569 126.49,297.2969 C281.43,339.0069 757.0906,350.0187 947.6906,352.8187 " fill="none" id="Guest-to-Auth" style="stroke:#181818;stroke-width:1.0;"/><polygon fill="#181818" points="953.69,352.9069,944.7497,348.7751,948.6905,352.8334,944.6322,356.7742,953.69,352.9069" style="stroke:#181818;stroke-width:1.0;"/></g><!--link Student to Browse--><g id="link_Student_Browse"><path d="M1014.22,90.1769 C972.26,98.6169 904.54,111.4069 845.49,118.7969 C816.36,122.4469 347.09,151.1869 318.49,157.7969 C272.14,168.5069 227.0576,188.0074 195.4376,203.2074 " fill="none" id="Student-to-Browse" style="stroke:#181818;stroke-width:1.0;"/><polygon fill="#181818" points="190.03,205.8069,199.8745,205.5127,194.5364,203.6406,196.4085,198.3025,190.03,205.8069" style="stroke:#181818;stroke-width:1.0;"/></g><!--link Student to Upload--><g id="link_Student_Upload"><path d="M1019.41,119.0869 C1005.72,131.1669 989.09,143.1569 971.49,149.7969 C924.26,167.6169 792.81,143.1969 744.49,157.7969 C713.44,167.1769 687.1131,184.5452 667.1231,199.9452 " fill="none" id="Student-to-Upload" style="stroke:#181818;stroke-width:1.0;"/><polygon fill="#181818" points="662.37,203.6069,671.9408,201.283,666.3309,200.5554,667.0585,194.9456,662.37,203.6069" style="stroke:#181818;stroke-width:1.0;"/></g><!--link Student to Discussion--><g id="link_Student_Discussion"><path d="M1055.74,118.9969 C1055.59,129.0469 1054.98,139.8769 1053.49,149.7969 C1050.66,168.5969 1046.2028,183.7005 1041.1928,198.0905 " fill="none" id="Student-to-Discussion" style="stroke:#181818;stroke-width:1.0;"/><polygon fill="#181818" points="1039.22,203.7569,1045.9568,196.5725,1040.864,199.0349,1038.4016,193.9421,1039.22,203.7569" style="stroke:#181818;stroke-width:1.0;"/></g><!--link Student to FindPartner--><g id="link_Student_FindPartner"><path d="M1094.74,111.1469 C1131.91,138.2469 1181.282,174.2517 1213.852,198.0017 " fill="none" id="Student-to-FindPartner" style="stroke:#181818;stroke-width:1.0;"/><polygon fill="#181818" points="1218.7,201.5369,1213.7848,193.0022,1214.66,198.5909,1209.0713,199.4662,1218.7,201.5369" style="stroke:#181818;stroke-width:1.0;"/></g><!--link Student to Schedule--><g id="link_Student_Schedule"><path d="M1039.61,118.9269 C1033.05,130.6869 1024.13,142.5069 1012.49,149.7969 C982.57,168.5169 966.68,145.7969 933.49,157.7969 C903.94,168.4769 879.2751,186.4988 861.1951,201.6788 " fill="none" id="Student-to-Schedule" style="stroke:#181818;stroke-width:1.0;"/><polygon fill="#181818" points="856.6,205.5369,866.0647,202.8132,860.4293,202.3218,860.9206,196.6863,856.6,205.5369" style="stroke:#181818;stroke-width:1.0;"/></g><!--link Student to Auth--><g id="link_Student_Auth"><path d="M1094.67,83.8369 C1213.15,90.2569 1554.91,111.8569 1587.49,148.7969 C1631.15,198.2869 1631.73,248.3169 1587.49,297.2969 C1579.48,306.1669 1259.8882,334.4359 1111.1982,347.1459 " fill="none" id="Student-to-Auth" style="stroke:#181818;stroke-width:1.0;"/><polygon fill="#181818" points="1105.22,347.6569,1114.528,350.8758,1110.2018,347.231,1113.8466,342.9049,1105.22,347.6569" style="stroke:#181818;stroke-width:1.0;"/></g><!--link Moderator to Browse--><g id="link_Moderator_Browse"><path d="M526.36,86.9369 C489.38,98.8069 395.73,129.2669 318.49,157.7969 C275.97,173.4969 233.286,190.7374 200.996,204.0674 " fill="none" id="Moderator-to-Browse" style="stroke:#181818;stroke-width:1.0;"/><polygon fill="#181818" points="195.45,206.3569,205.2953,206.6199,200.0717,204.449,202.2427,199.2253,195.45,206.3569" style="stroke:#181818;stroke-width:1.0;"/></g><!--link Moderator to Upload--><g id="link_Moderator_Upload"><path d="M550.84,118.9269 C554.14,129.3869 558.6,140.4569 564.49,149.7969 C577.97,171.1669 594.5209,186.8135 611.1309,200.0735 " fill="none" id="Moderator-to-Upload" style="stroke:#181818;stroke-width:1.0;"/><polygon fill="#181818" points="615.82,203.8169,611.282,195.0758,611.9124,200.6974,606.2908,201.3279,615.82,203.8169" style="stroke:#181818;stroke-width:1.0;"/></g><!--link Moderator to Discussion--><g id="link_Moderator_Discussion"><path d="M558.81,85.4469 C607.24,96.2069 754.42,128.3769 877.49,149.7969 C901.82,154.0369 909.34,149.1669 932.49,157.7969 C962.04,168.8169 987.2374,185.8646 1006.5474,200.7446 " fill="none" id="Moderator-to-Discussion" style="stroke:#181818;stroke-width:1.0;"/><polygon fill="#181818" points="1011.3,204.4069,1006.6126,195.745,1007.3395,201.355,1001.7295,202.0818,1011.3,204.4069" style="stroke:#181818;stroke-width:1.0;"/></g><!--link Moderator to FindPartner--><g id="link_Moderator_FindPartner"><path d="M558.58,85.4969 C591.08,92.8369 666.98,109.3669 731.49,118.7969 C775.78,125.2669 1089.78,144.3869 1132.49,157.7969 C1163.89,167.6569 1191.2998,183.5456 1213.4998,198.3656 " fill="none" id="Moderator-to-FindPartner" style="stroke:#181818;stroke-width:1.0;"/><polygon fill="#181818" points="1218.49,201.6969,1213.2255,193.3731,1214.3315,198.9208,1208.7838,200.0267,1218.49,201.6969" style="stroke:#181818;stroke-width:1.0;"/></g><!--link Moderator to Schedule--><g id="link_Moderator_Schedule"><path d="M558.74,107.4869 C569.88,122.6769 586.13,140.6669 605.49,149.7969 C633.48,162.9869 715.19,147.8369 744.49,157.7969 C774.21,167.8969 798.7381,186.2047 816.4981,201.6147 " fill="none" id="Moderator-to-Schedule" style="stroke:#181818;stroke-width:1.0;"/><polygon fill="#181818" points="821.03,205.5469,816.8537,196.6273,817.2534,202.27,811.6107,202.6698,821.03,205.5469" style="stroke:#181818;stroke-width:1.0;"/></g><!--link Moderator to Report--><g id="link_Moderator_Report"><path d="M526.26,101.5569 C504.22,128.3869 468.8775,171.3998 447.0775,197.9498 " fill="none" id="Moderator-to-Report" style="stroke:#181818;stroke-width:1.0;"/><polygon fill="#181818" points="443.27,202.5869,452.0727,198.1695,446.4429,198.7226,445.8898,193.0929,443.27,202.5869" style="stroke:#181818;stroke-width:1.0;"/></g><!--link Moderator to Auth--><g id="link_Moderator_Auth"><path d="M526.27,81.6869 C449.46,81.5569 123.41,85.3269 61.49,157.7969 C34.78,189.0569 34,219.7269 61.49,250.2969 C120.92,316.4069 728.8137,343.4572 948.6837,351.1472 " fill="none" id="Moderator-to-Auth" style="stroke:#181818;stroke-width:1.0;"/><polygon fill="#181818" points="954.68,351.3569,945.8253,347.0447,949.6831,351.1821,945.5457,355.0398,954.68,351.3569" style="stroke:#181818;stroke-width:1.0;"/></g><!--link Admin to Browse--><g id="link_Admin_Browse"><path d="M748.68,89.0269 C706.11,96.6869 636.6,109.0069 576.49,118.7969 C569.34,119.9569 325.48,155.8969 318.49,157.7969 C273.31,170.0669 229.0233,188.7546 197.1833,203.3646 " fill="none" id="Admin-to-Browse" style="stroke:#181818;stroke-width:1.0;"/><polygon fill="#181818" points="191.73,205.8669,201.5782,205.749,196.2744,203.7816,198.2418,198.4779,191.73,205.8669" style="stroke:#181818;stroke-width:1.0;"/></g><!--link Admin to Upload--><g id="link_Admin_Upload"><path d="M755.6,118.9169 C746.12,129.1669 735.61,140.1169 725.49,149.7969 C705.22,169.1769 685.3167,185.9357 667.8067,200.0857 " fill="none" id="Admin-to-Upload" style="stroke:#181818;stroke-width:1.0;"/><polygon fill="#181818" points="663.14,203.8569,672.6542,201.3112,667.0289,200.7142,667.6259,195.0889,663.14,203.8569" style="stroke:#181818;stroke-width:1.0;"/></g><!--link Admin to Discussion--><g id="link_Admin_Discussion"><path d="M828.13,115.5869 C844.85,128.1769 865.14,141.4269 885.49,149.7969 C905.09,157.8569 912.73,150.1569 932.49,157.7969 C961.71,169.0969 986.7164,185.9019 1006.0864,200.6519 " fill="none" id="Admin-to-Discussion" style="stroke:#181818;stroke-width:1.0;"/><polygon fill="#181818" points="1010.86,204.2869,1006.123,195.652,1006.882,201.2577,1001.2763,202.0167,1010.86,204.2869" style="stroke:#181818;stroke-width:1.0;"/></g><!--link Admin to FindPartner--><g id="link_Admin_FindPartner"><path d="M828.29,89.0669 C906.34,103.5669 1076.77,136.5369 1132.49,157.7969 C1162.39,169.2069 1188.8687,184.2504 1211.1687,198.3504 " fill="none" id="Admin-to-FindPartner" style="stroke:#181818;stroke-width:1.0;"/><polygon fill="#181818" points="1216.24,201.5569,1210.7707,193.3662,1212.0139,198.8848,1206.4953,200.128,1216.24,201.5569" style="stroke:#181818;stroke-width:1.0;"/></g><!--link Admin to Schedule--><g id="link_Admin_Schedule"><path d="M800.09,118.9869 C803.34,129.0269 806.95,139.8569 810.49,149.7969 C817.32,169.0069 823.6691,185.221 829.5191,199.751 " fill="none" id="Admin-to-Schedule" style="stroke:#181818;stroke-width:1.0;"/><polygon fill="#181818" points="831.76,205.3169,832.1092,195.4742,829.8926,200.6787,824.6881,198.4621,831.76,205.3169" style="stroke:#181818;stroke-width:1.0;"/></g><!--link Admin to Report--><g id="link_Admin_Report"><path d="M748.58,114.9969 C730.23,128.3169 707.45,142.2769 684.49,149.7969 C621.89,170.3069 599.57,138.8069 536.49,157.7969 C504.97,167.2869 477.8361,184.1168 456.7361,199.3368 " fill="none" id="Admin-to-Report" style="stroke:#181818;stroke-width:1.0;"/><polygon fill="#181818" points="451.87,202.8469,461.5093,200.8259,455.9251,199.9218,456.8292,194.3377,451.87,202.8469" style="stroke:#181818;stroke-width:1.0;"/></g><!--link Admin to Auth--><g id="link_Admin_Auth"><path d="M828.37,90.1069 C870.29,98.5369 938.26,111.3869 997.49,118.7969 C1055.97,126.1069 1486.38,114.6169 1526.49,157.7969 C1652.87,293.8369 1281.2339,336.6773 1113.9339,348.9673 " fill="none" id="Admin-to-Auth" style="stroke:#181818;stroke-width:1.0;"/><polygon fill="#181818" points="1107.95,349.4069,1117.2189,352.7368,1112.9366,349.0406,1116.6328,344.7583,1107.95,349.4069" style="stroke:#181818;stroke-width:1.0;"/></g><!--link Report to GMN41--><g id="link_Report_GMN41"><path d="M448.7,202.7669 C472.28,182.0069 512.54,150.8669 553.99,138.2969 C595.88,125.5869 1300.82,123.4069 1341.99,138.2969 C1373.25,149.6069 1401.66,175.2169 1420.42,195.2969 " fill="none" id="Report-GMN41" style="stroke:#181818;stroke-width:1.0;stroke-dasharray:7.0,7.0;"/></g><!--SRC=[TLN_JXGn4Fv_dsBKFyG4lAZn5p4auDqf2KGZ-W1bjznjt6itRLUz6Dy1bHC8SFY36BWNwkiuqtPlkmWXG6_ccvblldRcRcHy9nSStgw_tUZ1bgcoySjgUsbz0zvf3iyP_kdcRA3OAD7lSr4oF479qlTimBVCkE2WU6gO61Gy0cmZOA1a9RBdif0ARlLxz1CXM6gaMhiCwptfF-mzZM2LvYbo-1_ue7-_txq2A5N6LG3TU_huKVT-afZS5A739BaDNT_nAZ7GoRBTjHDxRlUNWMbuKN5jqFRB7g3rk_rf3m2T5_ZXn0588Iu8CaNddZrsras9LHdcQ-o0XzyOUcHd3hAQZN91vRV6sl0Hh54tJ8sJkNvmivOVbc1zuoPyJW1kmsfbXbWnJvd9fMYkPI4NQO5aCjWUWqICqdSmO06B4-6ftOCEu8UPtRTVqJInipkE2EP3dCkzoV8cetRH-_RGdY7ueeFq3_5m2XZ-2uz7-66A_qzScZKbFseU2lwsnoZZh8Dr3x7WnFw1AqBUbOLacGivj7_nzvn2zl1uW4SgEWDCzDsNTI7TNAULrjYu2ziDwSyxhh5TJ8uXT3ipAdcCxYdTculjvo9xpPGHNBdW6Nhfha_eQixiDtjnEM8h7VAiAdWjpwkI96T5f_V9S45IrrgvX9xenEu32G2EsP7NwvYgaVeJFFhkt_1IAbEdNlUNXzDJk7lLmxpKUE-LqoWNWqN8vhq34nbeJmvTCAgqWN3zm5hl0vDxcU7ktHLtrx0Cpvu5yCeA-XjDhyVKIboFYDIz7kHQzUArEiL6bPE3kk7Ehs6RNXGP5cJGdRO4qVo83SxTzCYzbe1b_JDqXNqUhFk5nioDDnZP34nBQeAuOOUK2P2Y6Fi2t6aTQSeJ3rjQgej51ZTBcEaD7-GurGfVI5WGBcqcWN_WQco6li-KbmOOBGBOgOJhJITrG5GWDeMXYKtHKCJc-Bt7zlchZeqry_dcgWdh0FBIQoYBIeVBWX4JkFP7jF-Qk8XtsnYOjuqHzxOZPj_spFctpM6UsiQwBRTjOOXZnue2Igv6kIkg4- -9I3U6GBWnH6GROqoqiSv9DgP0i35uSa8QV8lvO6X0xZHR0RyrQBUT-WrunLeXpEN5GfOVkC1EeLxM7jNQlGbD7rKDjGk-uqg7BmAtLAT- -Vx4qkT-BzPBVM-HC7xL4SMJHRXYaxewY9iqAxhUosTj3ly0]--></g></svg>